<?xml version="1.0" encoding="UTF-8"?> <svg xmlns="http://www.w3.org/2000/svg" viewBox="0 0 260.37 109.31"> <defs> <style>.cls-1{fill:#fff;}</style> </defs> <g id="Слой_2" data-name="Слой 2"> <g id="Слой_1-2" data-name="Слой 1"> <path class="cls-1" d="M0,109.25a0,0,0,0,0,0,.06H86.6a0,0,0,0,0,0,0V37.62a0,0,0,0,0,0,0Zm176.52-108-48.78,66.3s0,0,0,0L94.41,35.86s-.06,0-.06,0v73.38s0,0,0,0h82.18a0,0,0,0,0,0,0V1.25S176.55,1.21,176.53,1.23ZM220.29,0h-36a0,0,0,0,0,0,0V109.27a0,0,0,0,0,0,0h29.79s0,0,0,0V78.56s0,0,0,0h7a39.27,39.27,0,0,0,39.26-38.47C260.8,18,242.33,0,220.29,0Z"></path> </g> </g> </svg> 