<?xml version="1.0" encoding="UTF-8"?> <svg xmlns="http://www.w3.org/2000/svg" width="246" height="246" viewBox="0 0 246 246" fill="none"> <path d="M122.986 100.899C110.799 100.899 100.884 110.814 100.884 123C100.884 135.187 110.799 145.102 122.986 145.102C135.173 145.102 145.088 135.187 145.088 123C145.088 110.814 135.173 100.899 122.986 100.899V100.899ZM122.986 135.493C116.098 135.493 110.494 129.889 110.494 123C110.494 116.112 116.098 110.508 122.986 110.508C129.874 110.508 135.478 116.112 135.478 123C135.478 129.889 129.875 135.493 122.986 135.493Z" fill="url(#paint0_linear)"></path> <path d="M122.986 77.8363C98.0824 77.8363 77.822 98.0967 77.822 123C77.822 147.904 98.0824 168.164 122.986 168.164C147.89 168.164 168.15 147.904 168.15 123C168.15 98.0967 147.89 77.8363 122.986 77.8363V77.8363ZM122.986 158.555C103.381 158.555 87.4314 142.605 87.4314 123C87.4314 103.395 103.381 87.4457 122.986 87.4457C142.591 87.4457 158.541 103.395 158.541 123C158.541 142.605 142.591 158.555 122.986 158.555Z" fill="url(#paint1_linear)"></path> <path d="M245.798 3.47461C245.063 0.924768 242.401 -0.544022 239.85 0.188211L215.373 7.24244C213.063 7.5927 211.294 9.58616 211.294 11.9928V46.1695C209.027 44.7699 206.465 43.8051 203.724 43.3948C193.521 33.0412 181.626 24.8487 168.334 19.0427C154.004 12.7837 138.747 9.6097 122.986 9.6097C92.6986 9.6097 64.2237 21.4042 42.8073 42.8211C21.3909 64.2375 9.5959 92.7124 9.5959 123C9.5959 137.591 12.3134 151.721 17.6692 165.087C14.2502 166.467 11.0469 168.537 8.27942 171.304C-2.75981 182.344 -2.75981 200.306 8.27942 211.346L41.5259 244.593C42.4642 245.53 43.6937 246 44.9233 246C46.1528 246 47.3828 245.53 48.3206 244.593L69.7654 223.148C86.071 231.822 104.391 236.391 122.986 236.391C145.415 236.391 167.101 229.852 185.702 217.482C187.912 216.012 188.512 213.03 187.042 210.82C185.573 208.611 182.59 208.011 180.381 209.48C163.362 220.799 143.515 226.782 122.986 226.782C106.955 226.782 91.1519 223.071 76.9037 216.011L81.5676 211.347C92.6068 200.307 92.6068 182.345 81.5676 171.305C71.5993 161.338 55.9875 160.369 44.9237 168.403C39.6823 164.597 33.4194 162.815 27.2199 163.049C21.904 150.371 19.2057 136.917 19.2057 123.001C19.2057 65.7754 65.7616 19.2195 122.987 19.2195C148.683 19.2195 172.792 28.4157 191.764 45.2768C185.122 48.5833 180.545 55.441 180.545 63.3505C180.545 74.4777 189.597 83.5302 200.725 83.5302C206.754 83.5302 212.17 80.8688 215.871 76.6633C223.021 90.9832 226.768 106.837 226.768 123.001C226.768 143.531 220.785 163.377 209.467 180.395C207.997 182.605 208.597 185.587 210.807 187.056C211.625 187.6 212.549 187.861 213.463 187.861C215.017 187.861 216.543 187.108 217.468 185.717C229.839 167.117 236.377 145.429 236.377 123.001C236.377 102.745 230.988 82.9296 220.779 65.5751C220.86 64.8443 220.904 64.1029 220.904 63.351V15.6501L242.512 9.4228C245.061 8.68673 246.532 6.02445 245.798 3.47461V3.47461ZM48.3202 178.1C55.6132 170.807 67.4793 170.808 74.7718 178.1C82.0644 185.392 82.0644 197.258 74.7718 204.551L44.9228 234.4L15.0737 204.551C7.78118 197.258 7.78118 185.392 15.0737 178.1C18.72 174.453 23.5103 172.63 28.2996 172.63C33.0889 172.63 37.8791 174.453 41.5254 178.1C43.4021 179.975 46.4439 179.975 48.3202 178.1V178.1ZM200.724 73.9208C194.895 73.9208 190.153 69.1791 190.153 63.3505C190.153 57.522 194.895 52.7802 200.724 52.7802C206.552 52.7802 211.294 57.522 211.294 63.3505C211.294 69.1791 206.552 73.9208 200.724 73.9208Z" fill="url(#paint2_linear)"></path> <path d="M122.986 213.649C172.97 213.649 213.635 172.984 213.635 123C213.635 120.347 211.484 118.196 208.83 118.196C206.176 118.196 204.025 120.347 204.025 123C204.025 167.685 167.671 204.04 122.986 204.04C120.332 204.04 118.181 206.191 118.181 208.844C118.181 211.497 120.332 213.649 122.986 213.649V213.649Z" fill="url(#paint3_linear)"></path> <path d="M118.181 186.102C118.181 188.755 120.332 190.906 122.986 190.906C160.43 190.906 190.892 160.444 190.892 123C190.892 120.347 188.741 118.196 186.087 118.196C183.434 118.196 181.283 120.347 181.283 123C181.283 155.145 155.131 181.297 122.986 181.297C120.332 181.297 118.181 183.449 118.181 186.102V186.102Z" fill="url(#paint4_linear)"></path> <path d="M199.77 194.979C198.506 194.979 197.267 195.489 196.368 196.382C195.474 197.281 194.965 198.516 194.965 199.784C194.965 201.048 195.474 202.287 196.368 203.181C197.267 204.075 198.501 204.589 199.77 204.589C201.033 204.589 202.273 204.075 203.167 203.181C204.06 202.287 204.574 201.048 204.574 199.784C204.574 198.516 204.06 197.281 203.167 196.382C202.273 195.489 201.033 194.979 199.77 194.979Z" fill="url(#paint5_linear)"></path> <defs> <linearGradient id="paint0_linear" x1="122.986" y1="100.899" x2="122.986" y2="145.102" gradientUnits="userSpaceOnUse"> <stop stop-color="#BE9527"></stop> <stop offset="1" stop-color="#F3DB88"></stop> </linearGradient> <linearGradient id="paint1_linear" x1="122.986" y1="77.8363" x2="122.986" y2="168.164" gradientUnits="userSpaceOnUse"> <stop stop-color="#BE9527"></stop> <stop offset="1" stop-color="#F3DB88"></stop> </linearGradient> <linearGradient id="paint2_linear" x1="122.993" y1="0" x2="122.993" y2="246" gradientUnits="userSpaceOnUse"> <stop stop-color="#BE9527"></stop> <stop offset="1" stop-color="#F3DB88"></stop> </linearGradient> <linearGradient id="paint3_linear" x1="165.908" y1="118.196" x2="165.908" y2="213.649" gradientUnits="userSpaceOnUse"> <stop stop-color="#BE9527"></stop> <stop offset="1" stop-color="#F3DB88"></stop> </linearGradient> <linearGradient id="paint4_linear" x1="154.537" y1="118.196" x2="154.537" y2="190.906" gradientUnits="userSpaceOnUse"> <stop stop-color="#BE9527"></stop> <stop offset="1" stop-color="#F3DB88"></stop> </linearGradient> <linearGradient id="paint5_linear" x1="199.77" y1="194.979" x2="199.77" y2="204.589" gradientUnits="userSpaceOnUse"> <stop stop-color="#BE9527"></stop> <stop offset="1" stop-color="#F3DB88"></stop> </linearGradient> </defs> </svg> 