<?xml version="1.0" encoding="UTF-8"?> <svg xmlns="http://www.w3.org/2000/svg" width="182" height="182" viewBox="0 0 182 182" fill="none"> <path d="M113.041 75.2463C107.064 75.2463 101.259 76.4055 95.7878 78.6908C93.9763 79.4476 93.1214 81.5296 93.8779 83.3411C94.6347 85.1529 96.7167 86.0067 98.5281 85.251C103.127 83.3297 108.01 82.3557 113.041 82.3557C133.818 82.3557 150.721 99.259 150.721 120.035C150.721 140.812 133.818 157.715 113.041 157.715C92.2644 157.715 75.3615 140.812 75.3615 120.035C75.3615 115.012 76.3327 110.136 78.2483 105.543C79.004 103.731 78.1477 101.649 76.3359 100.894C74.5251 100.139 72.4424 100.994 71.6867 102.806C69.4078 108.271 68.2521 114.067 68.2521 120.035C68.2521 144.732 88.3443 164.824 113.041 164.824C137.738 164.824 157.83 144.732 157.83 120.035C157.83 95.3385 137.738 75.2463 113.041 75.2463Z" fill="url(#paint0_linear)"></path> <path d="M113.041 149.184C129.114 149.184 142.19 136.108 142.19 120.035C142.19 103.963 129.114 90.887 113.041 90.887C96.9687 90.887 83.8928 103.963 83.8928 120.035C83.8928 136.108 96.969 149.184 113.041 149.184ZM113.041 97.9963C125.194 97.9963 135.08 107.883 135.08 120.035C135.08 132.187 125.194 142.074 113.041 142.074C100.889 142.074 91.0021 132.188 91.0021 120.035C91.0021 107.883 100.889 97.9963 113.041 97.9963Z" fill="url(#paint1_linear)"></path> <path d="M163.972 58.1838H153.159L140.747 37.1803C140.108 36.0979 138.944 35.4338 137.687 35.4338H88.3955C87.1382 35.4338 85.9747 36.0979 85.3352 37.1803L72.9241 58.1838H52.6094V53.9182C52.6094 46.8618 46.8689 41.1213 39.8125 41.1213C32.7561 41.1213 27.0156 46.8618 27.0156 53.9182V58.1838H18.028C8.08727 58.1838 0 66.2711 0 76.2121V163.859C0 173.8 8.08727 181.887 18.028 181.887H163.972C173.912 181.887 182 173.8 182 163.859V76.2121C182 66.2711 173.912 58.1838 163.972 58.1838ZM90.4238 42.5432H135.659L144.901 58.1838H81.1816L90.4238 42.5432ZM34.125 53.9182C34.125 50.7823 36.6766 48.2307 39.8125 48.2307C42.9484 48.2307 45.5 50.7823 45.5 53.9182V58.1838H34.125V53.9182ZM174.891 163.859C174.891 169.88 169.993 174.778 163.972 174.778H18.028C12.0074 174.778 7.10938 169.879 7.10938 163.859V76.2121C7.10938 70.1912 12.0074 65.2932 18.028 65.2932H163.972C169.992 65.2932 174.89 70.1912 174.89 76.2121V163.859H174.891Z" fill="url(#paint2_linear)"></path> <path d="M113.041 113.104C116.864 113.104 119.973 116.213 119.973 120.035C119.973 121.999 121.564 123.59 123.528 123.59C125.491 123.59 127.082 121.999 127.082 120.035C127.082 112.293 120.783 105.994 113.041 105.994C111.078 105.994 109.487 107.586 109.487 109.549C109.487 111.512 111.078 113.104 113.041 113.104Z" fill="url(#paint3_linear)"></path> <path d="M113.041 26.0818C115.004 26.0818 116.596 24.49 116.596 22.5271V3.55469C116.596 1.59179 115.004 0 113.041 0C111.078 0 109.487 1.59143 109.487 3.55469V22.5271C109.487 24.4904 111.078 26.0818 113.041 26.0818Z" fill="url(#paint4_linear)"></path> <path d="M129.956 26.0818C130.866 26.0818 131.776 25.7345 132.47 25.0406L145.512 11.9981C146.9 10.61 146.9 8.3592 145.512 6.97074C144.124 5.58299 141.873 5.58299 140.485 6.97074L127.443 20.0136C126.055 21.4017 126.055 23.6525 127.443 25.041C128.137 25.7349 129.047 26.0818 129.956 26.0818Z" fill="url(#paint5_linear)"></path> <path d="M93.6127 25.041C94.3069 25.7349 95.2166 26.0822 96.1262 26.0822C97.0359 26.0822 97.9459 25.7349 98.6397 25.041C100.028 23.6529 100.028 21.4021 98.6401 20.0136L85.5976 6.9711C84.2095 5.5837 81.9587 5.58335 80.5706 6.9711C79.1824 8.35921 79.1821 10.61 80.5702 11.9985L93.6127 25.041Z" fill="url(#paint6_linear)"></path> <path d="M49.0547 87.3323H30.5703C28.6071 87.3323 27.0156 88.9241 27.0156 90.887C27.0156 92.8502 28.6071 94.4416 30.5703 94.4416H49.0547C51.0179 94.4416 52.6094 92.8502 52.6094 90.887C52.6094 88.9237 51.0179 87.3323 49.0547 87.3323Z" fill="url(#paint7_linear)"></path> <path d="M83.8764 94.4413C84.8113 94.4413 85.7284 94.0609 86.3896 93.3998C87.0507 92.7386 87.4311 91.8247 87.4311 90.8866C87.4311 89.9517 87.0507 89.0346 86.3896 88.3734C85.7284 87.7126 84.8113 87.3319 83.8764 87.3319C82.9415 87.3319 82.0244 87.7123 81.3632 88.3734C80.6985 89.0346 80.3217 89.9521 80.3217 90.8866C80.3217 91.8215 80.6985 92.7386 81.3632 93.3998C82.0244 94.0609 82.938 94.4413 83.8764 94.4413Z" fill="url(#paint8_linear)"></path> <defs> <linearGradient id="paint0_linear" x1="113.041" y1="75.2463" x2="113.041" y2="164.824" gradientUnits="userSpaceOnUse"> <stop stop-color="#BE9527"></stop> <stop offset="1" stop-color="#F5DB83"></stop> </linearGradient> <linearGradient id="paint1_linear" x1="113.041" y1="90.887" x2="113.041" y2="149.184" gradientUnits="userSpaceOnUse"> <stop stop-color="#BE9527"></stop> <stop offset="1" stop-color="#F5DB83"></stop> </linearGradient> <linearGradient id="paint2_linear" x1="175" y1="60" x2="4.09805e-06" y2="184.5" gradientUnits="userSpaceOnUse"> <stop stop-color="#BE9527"></stop> <stop offset="1" stop-color="#F5DB83"></stop> </linearGradient> <linearGradient id="paint3_linear" x1="118.284" y1="105.994" x2="118.284" y2="123.59" gradientUnits="userSpaceOnUse"> <stop stop-color="#BE9527"></stop> <stop offset="1" stop-color="#F5DB83"></stop> </linearGradient> <linearGradient id="paint4_linear" x1="113.041" y1="0" x2="113.041" y2="26.0818" gradientUnits="userSpaceOnUse"> <stop stop-color="#BE9527"></stop> <stop offset="1" stop-color="#F5DB83"></stop> </linearGradient> <linearGradient id="paint5_linear" x1="136.477" y1="5.92993" x2="136.477" y2="26.0818" gradientUnits="userSpaceOnUse"> <stop stop-color="#BE9527"></stop> <stop offset="1" stop-color="#F5DB83"></stop> </linearGradient> <linearGradient id="paint6_linear" x1="89.6051" y1="5.93042" x2="89.6051" y2="26.0822" gradientUnits="userSpaceOnUse"> <stop stop-color="#BE9527"></stop> <stop offset="1" stop-color="#F5DB83"></stop> </linearGradient> <linearGradient id="paint7_linear" x1="39.8125" y1="87.3323" x2="39.8125" y2="94.4416" gradientUnits="userSpaceOnUse"> <stop stop-color="#BE9527"></stop> <stop offset="1" stop-color="#F5DB83"></stop> </linearGradient> <linearGradient id="paint8_linear" x1="83.8764" y1="87.3319" x2="83.8764" y2="94.4413" gradientUnits="userSpaceOnUse"> <stop stop-color="#BE9527"></stop> <stop offset="1" stop-color="#F5DB83"></stop> </linearGradient> </defs> </svg> 