<?xml version="1.0" encoding="UTF-8"?> <svg xmlns="http://www.w3.org/2000/svg" width="288" height="306" viewBox="0 0 288 306" fill="none"> <path d="M253.588 0H240.431C234.648 0 234.648 8.96614 240.431 8.96614H253.588C267.174 8.96614 278.228 19.9801 278.228 33.5178V137.269C278.228 150.807 267.175 161.822 253.588 161.822H238.666C237.682 161.822 236.725 162.145 235.942 162.744L208.562 183.688V166.305C208.562 163.829 206.555 161.822 204.079 161.822H149.517C145.049 161.822 140.755 160.642 136.967 158.4V108.075C136.967 98.6485 132.166 90.3201 124.876 85.3929V33.5178C124.876 19.9801 135.93 8.96614 149.517 8.96614H212.337C218.12 8.96614 218.12 0 212.337 0H149.517C130.986 0 115.909 15.0362 115.909 33.5178V81.4526C113.857 80.9625 111.718 80.6953 109.517 80.6953H27.4495C12.3141 80.6953 0 92.9777 0 108.075V117.755C0 123.538 8.96614 123.538 8.96614 117.755V108.075C8.96614 97.9216 17.2574 89.6614 27.4495 89.6614H109.518C119.71 89.6614 128.002 97.9216 128.002 108.075V160.185C127.948 160.581 127.95 160.979 128.002 161.372V189.891C128.002 190.455 127.968 191.016 127.917 191.575H118.672C108.484 191.575 99.9916 198.928 98.2306 208.591C97.823 208.745 97.4315 208.959 97.0686 209.239L77.0174 224.721V212.788C77.0174 210.312 75.0107 208.305 72.5343 208.305H27.4495C17.2574 208.305 8.96614 200.045 8.96614 189.891V144.654C8.96614 138.871 0 138.871 0 144.654V189.892C0 204.989 12.3141 217.272 27.4495 217.272H68.0518V233.847C68.0518 237.443 72.4183 239.6 75.2749 237.396L97.8905 219.934V270.369C97.8905 281.8 107.214 291.1 118.672 291.1H146.183V301.561C146.183 305.156 150.55 307.316 153.406 305.11L171.551 291.1H176.912C188.37 291.1 197.693 281.8 197.693 270.369V262.409C197.693 256.626 188.727 256.626 188.727 262.409V270.369C188.727 276.856 183.427 282.134 176.912 282.134H170.021C169.03 282.134 168.066 282.463 167.282 283.068L155.149 292.435V286.616C155.149 284.141 153.142 282.133 150.666 282.133H118.672C112.157 282.133 106.856 276.855 106.856 270.368V212.307C106.856 205.819 112.156 200.541 118.672 200.541H176.912C183.426 200.541 188.727 205.82 188.727 212.307V234.315C188.727 240.098 197.693 240.098 197.693 234.315V212.307C197.693 200.876 188.37 191.576 176.912 191.576H136.917C136.951 191.016 136.968 168.373 136.968 168.373C140.921 169.962 145.159 170.788 149.518 170.788H199.596V192.761C199.596 196.348 203.944 198.508 206.803 196.322L240.185 170.788H253.588C272.119 170.788 287.195 155.752 287.195 137.27V33.5178C287.194 15.0362 272.118 0 253.588 0V0Z" fill="url(#paint0_linear)"></path> <path d="M212.754 33.1221C207.062 31.669 201.261 36.1664 201.261 42.0482C201.261 48.4745 198.919 54.6678 194.67 59.4838L182.318 73.4608C181.518 72.2336 180.136 71.4213 178.562 71.4213H154.45C151.973 71.4213 149.966 73.4285 149.966 75.9044V130.158C149.966 132.634 151.973 134.642 154.45 134.642H178.562C180.374 134.642 181.931 133.565 182.638 132.019C187.52 135.002 193.177 136.615 198.932 136.615H241.547C248.058 136.615 253.43 130.964 253.125 124.469C252.989 121.593 253.137 82.9709 253.137 82.1131C253.137 75.722 247.938 70.5217 241.56 70.5217L219.4 70.4553L220.317 68.2825C224.51 58.3522 223.82 46.8373 218.473 37.4785C217.224 35.2919 215.193 33.7456 212.754 33.1221C210.314 32.4993 215.193 33.7456 212.754 33.1221C207.062 31.669 215.193 33.7456 212.754 33.1221V33.1221ZM174.079 125.675H158.933V80.3874H174.079V125.675ZM241.547 79.4872C242.994 79.4872 244.172 80.6648 244.172 82.1125C244.172 82.9655 244.163 85.2806 244.151 88.4193C244.085 105.749 244.04 122.162 244.168 124.89C244.215 125.874 243.736 126.531 243.447 126.834C242.946 127.359 242.271 127.648 241.547 127.648H198.932C193.853 127.648 188.881 125.888 184.933 122.691L183.046 121.164V86.1772L201.391 65.4182C207.089 58.9601 210.227 50.6605 210.227 42.0476C210.227 41.7942 210.573 41.7284 210.688 41.9257C214.658 48.8732 215.17 57.4216 212.058 64.7935L208.52 73.1733C207.936 74.5559 208.083 76.1381 208.909 77.3898C209.737 78.6414 211.136 79.3958 212.636 79.4006L241.547 79.4872Z" fill="url(#paint1_linear)"></path> <path d="M38.387 155.711C35.9106 155.711 33.904 157.718 33.904 160.194C33.904 162.67 35.9106 164.677 38.387 164.677H51.6019L49.1333 179.608C48.7292 182.05 50.3825 184.358 52.8249 184.762C53.073 184.803 53.3186 184.823 53.5613 184.823C55.7156 184.823 57.6158 183.266 57.9792 181.071L60.6894 164.677H71.5044L69.0357 179.608C68.6316 182.051 70.285 184.359 72.7274 184.763C72.9754 184.804 73.2211 184.824 73.4638 184.824C75.618 184.824 77.5183 183.267 77.8817 181.071L80.5918 164.678H98.5797C101.056 164.678 103.063 162.671 103.063 160.195C103.063 157.719 101.056 155.712 98.5797 155.712H82.0742L83.8824 144.776H98.5797C101.056 144.776 103.063 142.768 103.063 140.293C103.063 137.817 101.056 135.809 98.5797 135.809H85.3648L87.8335 120.878C88.2376 118.436 86.5842 116.128 84.1418 115.724C81.6965 115.319 79.3916 116.973 78.9875 119.416L76.2773 135.809H65.4624L67.9311 120.878C68.3351 118.436 66.6818 116.128 64.2394 115.724C61.791 115.318 59.4897 116.973 59.0851 119.415L56.3749 135.808H38.387C35.9106 135.808 33.904 137.816 33.904 140.291C33.904 142.767 35.9106 144.774 38.387 144.774H54.8925L53.0843 155.711H38.387ZM63.9806 144.774H74.7955L72.9874 155.711H62.1724L63.9806 144.774Z" fill="url(#paint2_linear)"></path> <path d="M147.738 223.673C144.118 220.693 139.302 219.517 134.471 220.691C128.28 222.195 122.033 227.982 122.033 237.521C122.033 243.459 124.2 248.612 128.657 253.277C132.298 257.088 137.552 260.711 145.692 265.027C146.349 265.376 147.07 265.55 147.792 265.55C148.513 265.55 149.235 265.376 149.892 265.027C164.093 257.499 173.55 249.94 173.55 237.521C173.55 227.93 167.082 222.202 160.67 220.78C155.854 219.711 151.184 220.846 147.738 223.673V223.673ZM164.584 237.521C164.584 244.22 160.141 249.173 147.791 255.971C135.442 249.173 130.998 244.219 130.998 237.521C130.998 232.537 133.884 230.06 136.585 229.404C137.083 229.283 137.617 229.215 138.165 229.215C140.196 229.215 142.43 230.154 143.807 232.824C144.592 234.343 146.179 235.285 147.88 235.25C149.589 235.216 151.131 234.213 151.854 232.664C153.304 229.554 156.355 229.007 158.727 229.534C161.559 230.161 164.584 232.589 164.584 237.521V237.521Z" fill="url(#paint3_linear)"></path> <defs> <linearGradient id="paint0_linear" x1="287" y1="2.5" x2="80.5" y2="286" gradientUnits="userSpaceOnUse"> <stop stop-color="#BE9527"></stop> <stop offset="1" stop-color="#F3DB8B"></stop> </linearGradient> <linearGradient id="paint1_linear" x1="246" y1="33" x2="201.552" y2="136.615" gradientUnits="userSpaceOnUse"> <stop stop-color="#BE9527"></stop> <stop offset="1" stop-color="#F3DB8B"></stop> </linearGradient> <linearGradient id="paint2_linear" x1="97" y1="116" x2="52" y2="176" gradientUnits="userSpaceOnUse"> <stop stop-color="#BE9527"></stop> <stop offset="1" stop-color="#F3DB8B"></stop> </linearGradient> <linearGradient id="paint3_linear" x1="174" y1="220" x2="132" y2="261" gradientUnits="userSpaceOnUse"> <stop stop-color="#BE9527"></stop> <stop offset="1" stop-color="#F3DB8B"></stop> </linearGradient> </defs> </svg> 