<?xml version="1.0" encoding="UTF-8"?> <svg xmlns="http://www.w3.org/2000/svg" width="512" height="512" viewBox="0 0 512 512" fill="none"> <path d="M442 44.9998H423.499V32.4999C423.499 14.5799 408.92 0 390.999 0C373.079 0 358.5 14.5789 358.5 32.4999V44.9998H358.499H333.5V32.4999C333.5 14.5799 318.921 0 301 0C283.079 0 268.5 14.5789 268.5 32.4999V44.9998H268.499H243.5V32.4999C243.5 14.5799 228.92 0 211 0C193.08 0 178.5 14.5789 178.5 32.4999V44.9998H153.501V32.4999C153.501 14.5799 138.921 0 121.002 0C103.082 0 88.5016 14.5789 88.5016 32.4999V44.9998H69.9997C31.4019 44.9998 0 76.4017 0 115V442C0 480.598 31.4019 512 69.9997 512H442C480.598 512 511.999 480.598 511.999 442V115C511.999 76.4017 480.598 44.9998 442 44.9998ZM378.5 32.4999C378.5 25.6079 384.107 19.9999 390.999 19.9999C397.892 19.9999 403.499 25.6069 403.499 32.4999V77.4997C403.499 84.3927 397.892 89.9996 390.999 89.9996C384.107 89.9996 378.5 84.3927 378.5 77.4997V32.4999ZM288.5 32.4999C288.5 25.6079 294.107 19.9999 301 19.9999C307.893 19.9999 313.5 25.6069 313.5 32.4999V77.4997C313.5 84.3927 307.893 89.9996 301 89.9996C294.107 89.9996 288.5 84.3927 288.5 77.4997V32.4999ZM198.5 32.4999C198.5 25.6079 204.107 19.9999 211 19.9999C217.893 19.9999 223.5 25.6069 223.5 32.4999V77.4997C223.5 84.3927 217.893 89.9996 211 89.9996C204.107 89.9996 198.5 84.3927 198.5 77.4997V32.4999ZM108.501 32.4999C108.501 25.6079 114.108 19.9999 121.001 19.9999C127.893 19.9999 133.5 25.6069 133.5 32.4999V77.4997C133.5 84.3927 127.893 89.9996 121.001 89.9996C114.108 89.9996 108.501 84.3927 108.501 77.4997V32.4999ZM491.999 442C491.999 469.57 469.569 492 442 492H69.9997C42.4298 492 19.9999 469.57 19.9999 442V115C19.9999 87.4297 42.4298 64.9997 69.9997 64.9997H88.4996V77.4997C88.4996 95.4196 103.08 110 121 110C138.919 110 153.499 95.4196 153.499 77.4997V64.9997H178.499V77.4997C178.499 95.4196 193.079 110 210.999 110C228.919 110 243.499 95.4196 243.499 77.4997V64.9997H268.499H268.5V77.4997C268.5 95.4196 283.079 110 301 110C318.921 110 333.5 95.4196 333.5 77.4997V64.9997H358.499H358.5V77.4997C358.5 95.4196 373.079 110 390.999 110C408.92 110 423.499 95.4196 423.499 77.4997V64.9997H442C469.569 64.9997 491.999 87.4297 491.999 115V442Z" fill="url(#paint0_linear)"></path> <path d="M442 135H211C205.477 135 201 139.477 201 145C201 150.523 205.477 155 211 155H442C444.617 155 447 157.383 447 160V442.001C447 444.618 444.617 447.001 442 447.001H69.9999C67.3829 447.001 64.9999 444.618 64.9999 442.001V160C64.9999 157.383 67.3829 155 69.9999 155H121.001C126.524 155 131.001 150.523 131.001 145C131.001 139.477 126.524 135 121.001 135H69.9999C56.215 135 45 146.215 45 160V442.001C45 455.786 56.215 467.001 69.9999 467.001H442C455.785 467.001 467 455.786 467 442.001V160C467 146.214 455.786 135 442 135Z" fill="url(#paint1_linear)"></path> <path d="M163.272 278.295C161.124 284.781 162.712 291.888 167.409 296.837L197.128 328.212L191.256 369.695C190.239 376.497 193.024 383.257 198.525 387.339C201.779 389.754 205.647 390.991 209.546 390.991C212.235 390.991 214.94 390.402 217.466 389.204L256.55 370.606L293.882 388.859C299.965 392.057 307.247 391.625 312.949 387.712C318.699 383.766 321.711 377.016 320.808 370.095L315.204 327.224L344.441 297.006C349.205 292.12 350.873 285.021 348.794 278.481C346.727 271.975 341.265 267.162 334.555 265.922L292.081 258.01L272.38 220.868C269.209 214.832 262.986 211.051 256.14 211C249.298 210.958 243.037 214.642 239.772 220.639L219.118 258.596L177.649 265.867C170.935 267.033 165.425 271.795 163.272 278.295ZM227.325 277.463C230.327 276.937 232.925 275.07 234.382 272.393L256 232.665L276.676 271.644C278.104 274.336 280.682 276.23 283.679 276.789L328.159 285.075L297.478 316.784C295.359 318.974 294.354 322.012 294.749 325.034L300.612 369.888L261.002 350.521C258.265 349.183 255.065 349.166 252.313 350.475L211.423 369.933L217.607 326.239C218.034 323.221 217.062 320.174 214.966 317.961L183.83 285.09L227.325 277.463Z" fill="url(#paint2_linear)"></path> <path d="M166.004 155C171.527 155 176.004 150.523 176.004 145C176.004 139.477 171.527 135 166.004 135H165.997C160.474 135 156.001 139.477 156.001 145C156.001 150.523 160.481 155 166.004 155V155Z" fill="url(#paint3_linear)"></path> <defs> <linearGradient id="paint0_linear" x1="424" y1="14.0001" x2="58" y2="528" gradientUnits="userSpaceOnUse"> <stop stop-color="#BE9527"></stop> <stop offset="1" stop-color="#F7DD89"></stop> </linearGradient> <linearGradient id="paint1_linear" x1="452" y1="135" x2="68" y2="456" gradientUnits="userSpaceOnUse"> <stop stop-color="#BE9527"></stop> <stop offset="1" stop-color="#F7DD89"></stop> </linearGradient> <linearGradient id="paint2_linear" x1="308" y1="230" x2="206" y2="376" gradientUnits="userSpaceOnUse"> <stop stop-color="#BE9527"></stop> <stop offset="1" stop-color="#F7DD89"></stop> </linearGradient> <linearGradient id="paint3_linear" x1="188" y1="135" x2="156" y2="155" gradientUnits="userSpaceOnUse"> <stop stop-color="#BE9527"></stop> <stop offset="1" stop-color="#F7DD89"></stop> </linearGradient> </defs> </svg> 